<?xml version="1.0" encoding="UTF-8"?>
<svg version="1.1" xmlns="http://www.w3.org/2000/svg" width="120" height="120">
<path d="M0 0 C2.02641834 0.01385627 4.04818847 -0.02029402 6.07421875 -0.05834961 C21.07391928 -0.03629123 31.92779575 5.61274922 42.87890625 15.59985352 C52.94102486 26.01027623 56.88907995 38.20591817 57.01025391 52.38818359 C57.02666871 53.78939592 57.05376333 55.1905297 57.09228516 56.59130859 C57.52705848 72.52102519 52.39017284 84.00373373 41.63671875 95.79516602 C29.61500641 107.41466494 15.08131958 111.02862338 -1.13525391 111.01025391 C-14.27753542 110.76983415 -24.0384143 106.81387391 -34.33984375 98.57641602 C-35.16226563 97.97055664 -35.9846875 97.36469727 -36.83203125 96.74047852 C-46.26219686 88.60292128 -52.60238787 75.56207716 -53.5168457 63.1796875 C-54.00931969 43.2315481 -50.82710578 28.86680765 -36.82421875 13.90063477 C-32.74059974 10.08026793 -28.31007203 7.12167942 -23.33984375 4.57641602 C-22.66856445 4.22554932 -21.99728516 3.87468262 -21.30566406 3.51318359 C-14.29407016 0.24387149 -7.66774735 -0.07294702 0 0 Z " fill="#160A30" transform="translate(57.33984375,4.423583984375)"/>
<path d="M0 0 C2.475 0.99 2.475 0.99 5 2 C9.54035911 3.68943595 13.95404095 4.55250361 18.73046875 5.2421875 C21.80888508 6.27009244 22.43761931 7.13517354 24 10 C24.41457823 13.04957626 24.3486579 16.06803258 24.29296875 19.140625 C24.28872391 20.02280701 24.28447906 20.90498901 24.28010559 21.81390381 C24.26333838 24.62624883 24.22568998 27.43787226 24.1875 30.25 C24.17245062 32.1588438 24.15876266 34.06769886 24.14648438 35.9765625 C24.11599538 40.65154203 24.0572713 45.32496515 24 50 C16.08 50 8.16 50 0 50 C0 33.5 0 17 0 0 Z " fill="#E8E4DE" transform="translate(47,49)"/>
<path d="M0 0 C5.69505784 4.85754934 5.69505784 4.85754934 6.58203125 8.890625 C6.9184338 13.49073428 6.27111956 16.22674163 3.3125 19.8125 C-0.11748744 23.47115327 -3.27659719 24.01089769 -8.1875 24.1875 C-12.08464226 24.16685289 -14.462841 23.94999163 -17.5 21.4375 C-21.36339215 17.167435 -21.21156089 14.12607376 -21.16015625 8.515625 C-20.77533774 4.86775636 -19.63515463 3.18929982 -16.875 0.8125 C-11.71699718 -2.28890042 -5.4971549 -2.27056398 0 0 Z " fill="#EBE7E0" transform="translate(66.875,27.1875)"/>
</svg>
